<svg xmlns="http://www.w3.org/2000/svg" viewBox="0 0 800 1000" width="800" height="1000">
  <!-- Emblem Group -->
  <g transform="translate(400, 360) scale(1.1) translate(-250, -250)">
    <path fill-rule="evenodd" fill="#FFFFFF"
          d="M 250 65 L 385 200 L 385 405 L 115 405 L 115 200 Z 
             M 250 185 C 282 185 306 220 306 265 C 306 310 282 345 250 345 C 218 345 194 310 194 265 C 194 220 218 185 250 185 Z" />
    
    <path d="M 250 192 C 272 230, 228 300, 250 338" 
          fill="none" stroke="#FFFFFF" stroke-width="9" stroke-linecap="round" />
  </g>
  
  <!-- Brand Title Wordmark -->
  <text x="400" y="690" text-anchor="middle"
        font-family="-apple-system, BlinkMacSystemFont, 'Montserrat', 'Syne', 'Inter', sans-serif"
        font-weight="800" font-size="44" letter-spacing="8" fill="#FFFFFF">
    APARTMENT BREW CO.
  </text>
  
  <line x1="280" y1="728" x2="520" y2="728" stroke="#FFFFFF" stroke-width="1.5" stroke-linecap="round" opacity="0.8" />
  <circle cx="400" cy="728" r="3.5" fill="#FFFFFF" />
  
  <text x="400" y="768" text-anchor="middle"
        font-family="-apple-system, BlinkMacSystemFont, 'Inter', 'Montserrat', sans-serif"
        font-weight="600" font-size="16" letter-spacing="4.5" fill="#FFFFFF">
    MICRO-BATCH SPECIALTY COFFEE
  </text>
  
  <text x="400" y="805" text-anchor="middle"
        font-family="-apple-system, BlinkMacSystemFont, 'Inter', 'Montserrat', sans-serif"
        font-weight="500" font-size="13" letter-spacing="3" fill="#FFFFFF" opacity="0.85">
    GURUGRAM • EST. 2026
  </text>
</svg>